# xmcd
#
# Track frame offsets:
#	150
#	15657
#	28417
#	40542
#	53295
#	70002
#	86229
#	103250
#	121342
#	131247
#	145390
#	157992
#	170115
#	183467
#	195875
#
# Disc length: 2758 seconds
#
# Revision: 0
# Processed by: cddbd v1.5.2PL0 Copyright (c) Steve Scherf et al.
# Submitted via: audiograbber 1.83.01
#
DISCID=cc0ac40f
DTITLE=Diverse kunstnere Country - This Side Of Nashville
DYEAR=1900
DGENRE=
TTITLE0=Let It Go -Bill Kirkpatrick
TTITLE1=I Can´t Remember To Forget About Yoy -Chris Fertitta
TTITLE2=Get A Little Closer -Bernadette Tassone
TTITLE3=I´m Good Time Your Mama Warned You About -Billy Lynn Bar
TTITLE4=It´s Just Like Yoy -Larry Lynum
TTITLE5=Love Knows No Age -Laura Beth Sherrill
TTITLE6=He Must Have A Way With Women -Bill Kirkpatrick 
TTITLE7=From The Pages Of Time -Chris Feritta
TTITLE8=Do I Care -Chris Fertitta
TTITLE9=Night Lights and Whiskey -William Ray
TTITLE10=Baby Blue Eyes and Tight Levis -Candy Chase
TTITLE11=Small Town Country Boy -Bobby T Adkinds
TTITLE12=Watdh Out Big Sister -Don Scheffer
TTITLE13=Hoofin -The Redwood Wranglers
TTITLE14=I´ve Fallen In Love -Candy Chase
EXTD=
EXTT0=
EXTT1=
EXTT2=
EXTT3=
EXTT4=
EXTT5=
EXTT6=
EXTT7=
EXTT8=
EXTT9=
EXTT10=
EXTT11=
EXTT12=
EXTT13=
EXTT14=
PLAYORDER=
